# xmcd
#
# Track frame offsets:
#	150
#	17150
#	32355
#	46845
#	61660
#	73747
#	88345
#	102240
#	123037
#	135272
#	154215
#	170817
#	187175
#	199490
#	218205
#	227807
#
# Disc length: 3207 seconds
#
# Revision: 1
# Processed by: cddbd v1.5.1PL0 Copyright (c) Steve Scherf et al.
# Submitted via: CDex 1.50Beta5
#
DISCID=e00c8510
DTITLE=Various Artist - Sunset Dream
DYEAR=1900
DGENRE=
TTITLE0=ワイキキ
TTITLE1=茶色の娘
TTITLE2=パオアカラニ
TTITLE3=引き潮
TTITLE4=ビューティフル・カナハ
TTITLE5=ブルー・レイ
TTITLE6=アカカの滝
TTITLE7=みんなで踊ろう
TTITLE8=VINIVINI
TTITLE9=恋しき君よアロハ
TTITLE10=フラ・オ・マキ
TTITLE11=ハワイアン・ホスピタリティ
TTITLE12=メ・カ・ナニ・アオ・カウポ
TTITLE13=クウ・イポ
TTITLE14=タ・フ・ワ・フ・ワイ
TTITLE15=マウイの娘
EXTD=
EXTT0=
EXTT1=
EXTT2=
EXTT3=
EXTT4=
EXTT5=
EXTT6=
EXTT7=
EXTT8=
EXTT9=
EXTT10=
EXTT11=
EXTT12=
EXTT13=
EXTT14=
EXTT15=
PLAYORDER=
